<svg xmlns="http://www.w3.org/2000/svg" width="1204" height="303" viewBox="0 0 1204.4 302.8">
      <polygon points="159 0 196.5 115.5 317.9 115.5 219.7 187.1 257.2 302.7 159 231.4 60.7 302.8 98.3 187.1 0 115.5 121.4 115.5 "/>
      <path d="M474.2 130.2c3.8 5.2 5.7 11.5 5.7 18.8 0 7.5-1.9 13.6-5.7 18.2 -2.1 2.6-5.3 4.9-9.4 7 6.3 2.3 11 5.9 14.2 10.9 3.2 5 4.8 11 4.8 18.1 0 7.3-1.8 13.9-5.5 19.7 -2.3 3.9-5.2 7.1-8.7 9.7 -3.9 3-8.6 5.1-13.9 6.2 -5.4 1.1-11.2 1.7-17.4 1.7h-55.6v-123.3h59.6C457.3 117.2 467.9 121.6 474.2 130.2zM407.2 138.4v27.2h30c5.4 0 9.7-1 13-3.1 3.3-2 5-5.6 5-10.8 0-5.7-2.2-9.5-6.6-11.4 -3.8-1.3-8.7-1.9-14.6-1.9H407.2zM407.2 186v32.9h29.9c5.3 0 9.5-0.7 12.5-2.2 5.4-2.7 8.1-7.8 8.1-15.4 0-6.4-2.6-10.8-7.9-13.2 -2.9-1.3-7-2-12.3-2.1H407.2z"/>
      <path d="M528.4 240.3h-23.8v-123.3h23.8V240.3z"/>
      <path d="M587.7 184.9c4.4-0.6 7.6-1.3 9.5-2.1 3.4-1.5 5.1-3.7 5.1-6.8 0-3.7-1.3-6.3-3.9-7.7 -2.6-1.4-6.5-2.1-11.6-2.1 -5.7 0-9.8 1.4-12.1 4.2 -1.7 2.1-2.8 4.9-3.4 8.4h-23c0.5-8 2.7-14.5 6.7-19.7 6.3-8 17.2-12 32.6-12 10 0 18.9 2 26.7 5.9 7.8 4 11.7 11.4 11.7 22.4v41.8c0 2.9 0.1 6.4 0.2 10.5 0.2 3.1 0.6 5.2 1.4 6.4 0.8 1.1 2 2 3.5 2.8v3.5h-25.9c-0.7-1.8-1.2-3.6-1.5-5.2 -0.3-1.6-0.5-3.5-0.7-5.5 -3.3 3.6-7.1 6.6-11.4 9.1 -5.2 3-11 4.4-17.5 4.4 -8.3 0-15.2-2.4-20.6-7.1 -5.4-4.7-8.1-11.4-8.1-20 0-11.2 4.4-19.3 13.1-24.3 4.8-2.7 11.8-4.7 21.1-5.9L587.7 184.9zM602.3 196c-1.5 0.9-3.1 1.7-4.6 2.3 -1.6 0.6-3.7 1.1-6.4 1.6l-5.4 1c-5.1 0.9-8.7 2-11 3.3 -3.8 2.2-5.6 5.6-5.6 10.1 0 4.1 1.1 7 3.4 8.8 2.3 1.8 5.1 2.7 8.4 2.7 5.2 0 10-1.5 14.4-4.5 4.4-3 6.7-8.5 6.8-16.5V196z"/>
      <path d="M701.4 181.9c-0.4-3.4-1.6-6.5-3.4-9.2 -2.7-3.7-6.9-5.5-12.5-5.5 -8.1 0-13.6 4-16.5 12 -1.6 4.2-2.3 9.8-2.3 16.9 0 6.7 0.8 12 2.3 16.1 2.9 7.6 8.2 11.4 16.1 11.4 5.6 0 9.6-1.5 11.9-4.5 2.4-3 3.8-6.9 4.3-11.7h24.3c-0.6 7.2-3.2 14.1-7.9 20.6 -7.5 10.4-18.6 15.6-33.2 15.6 -14.7 0-25.5-4.4-32.4-13.1 -6.9-8.7-10.4-20-10.4-33.8 0-15.6 3.8-27.8 11.5-36.5 7.6-8.7 18.2-13.1 31.7-13.1 11.4 0 20.8 2.6 28.1 7.7 7.3 5.1 11.6 14.2 12.9 27.2H701.4z"/>
      <path d="M741.9 117.4h23.4v66.5l30.1-34.4h29.7L792.4 183.5l34 56.8h-29l-22.1-39 -9.9 10.3v28.7h-23.4V117.4z"/>
      <path d="M905.6 202.3c0.8 5.6 2.4 9.8 4.7 12.6 4.3 5.1 11.6 7.6 22 7.6 6.2 0 11.2-0.7 15.1-2 7.3-2.6 11-7.3 11-14.3 0-4.1-1.8-7.2-5.4-9.5 -3.6-2.2-9.3-4.1-17.1-5.8l-13.4-2.9c-13.1-2.9-22.1-6-27-9.5 -8.3-5.7-12.5-14.6-12.5-26.7 0-11 4.1-20.2 12.2-27.5 8.1-7.3 20.1-11 35.8-11 13.2 0 24.4 3.4 33.7 10.3 9.3 6.9 14.2 16.9 14.6 30h-24.8c-0.5-7.4-3.8-12.7-9.9-15.8 -4.1-2.1-9.2-3.1-15.3-3.1 -6.8 0-12.2 1.3-16.3 4 -4.1 2.7-6.1 6.4-6.1 11.2 0 4.4 2 7.7 6 9.9 2.6 1.4 8 3.2 16.4 5.1l21.6 5.1c9.5 2.2 16.6 5.2 21.3 8.9 7.3 5.8 11 14.2 11 25.2 0 11.3-4.4 20.6-13.1 28.1 -8.7 7.4-21 11.2-36.9 11.2 -16.2 0-29-3.7-38.3-11 -9.3-7.3-13.9-17.4-13.9-30.2H905.6z"/>
      <path d="M990 167v-17h12.7V124.6h23.6v25.4h14.8v17h-14.8v48.2c0 3.7 0.5 6.1 1.4 7 0.9 0.9 3.8 1.4 8.7 1.4 0.7 0 1.5 0 2.3 0 0.8 0 1.6-0.1 2.4-0.1v17.8l-11.3 0.4c-11.3 0.4-19-1.6-23.1-5.9 -2.7-2.7-4-6.9-4-12.6V167H990z"/>
      <path d="M1092.5 184.9c4.4-0.6 7.6-1.3 9.5-2.1 3.4-1.5 5.1-3.7 5.1-6.8 0-3.7-1.3-6.3-3.9-7.7 -2.6-1.4-6.5-2.1-11.6-2.1 -5.7 0-9.8 1.4-12.1 4.2 -1.7 2.1-2.8 4.9-3.4 8.4h-23c0.5-8 2.7-14.5 6.7-19.7 6.3-8 17.2-12 32.6-12 10 0 18.9 2 26.7 5.9 7.8 4 11.7 11.4 11.7 22.4v41.8c0 2.9 0.1 6.4 0.2 10.5 0.2 3.1 0.6 5.2 1.4 6.4 0.8 1.1 2 2 3.5 2.8v3.5h-25.9c-0.7-1.8-1.2-3.6-1.5-5.2 -0.3-1.6-0.5-3.5-0.7-5.5 -3.3 3.6-7.1 6.6-11.4 9.1 -5.2 3-11 4.4-17.5 4.4 -8.3 0-15.2-2.4-20.6-7.1 -5.4-4.7-8.1-11.4-8.1-20 0-11.2 4.4-19.3 13.1-24.3 4.8-2.7 11.8-4.7 21.1-5.9L1092.5 184.9zM1107.1 196c-1.5 0.9-3.1 1.7-4.6 2.3 -1.6 0.6-3.7 1.1-6.4 1.6l-5.4 1c-5.1 0.9-8.7 2-11 3.3 -3.8 2.2-5.6 5.6-5.6 10.1 0 4.1 1.1 7 3.4 8.8 2.3 1.8 5.1 2.7 8.4 2.7 5.2 0 10-1.5 14.4-4.5 4.4-3 6.7-8.5 6.8-16.5V196z"/>
      <path d="M1202.3 147c0.3 0 1 0.1 2.1 0.1v24.4c-1.5-0.2-2.8-0.3-4-0.3 -1.2-0.1-2.1-0.1-2.8-0.1 -9.6 0-16 3.1-19.3 9.4 -1.8 3.5-2.8 8.9-2.8 16.2v43.6h-24v-91.2h22.7v15.9c3.7-6.1 6.9-10.2 9.6-12.5 4.5-3.7 10.3-5.6 17.4-5.6C1201.7 147 1202 147 1202.3 147z"/>
</svg>